<svg width="20" height="20" viewBox="0 0 20 20" fill="none" xmlns="http://www.w3.org/2000/svg">
<path d="M19.2 0H0.8C0.3575 0 0 0.3575 0 0.8V19.2C0 19.6425 0.3575 20 0.8 20H19.2C19.6425 20 20 19.6425 20 19.2V0.8C20 0.3575 19.6425 0 19.2 0ZM18.4 18.4H13.7975V12.255H16.3975L16.7875 9.2375H13.7975V7.31C13.7975 6.435 14.04 5.84 15.2925 5.84H16.89V3.14C16.6125 3.1025 15.665 3.02 14.56 3.02C12.255 3.02 10.6775 4.4275 10.6775 7.01V9.235H8.0725V12.2525H10.68V18.4H1.6V1.6H18.4V18.4Z" fill="white"/>
</svg>
